<svg xmlns="http://www.w3.org/2000/svg" width="67.651" height="71.631" viewBox="0 0 67.651 71.631">
  <path id="Path_830" data-name="Path 830" d="M-220.916-33.283c-10.718-8.361-26.256-10.318-37.567,1.519A28.075,28.075,0,0,0-263.64-.925c1.37,5.221,5.445,12.5,15.858,21.549a39.424,39.424,0,0,1-1.414-9.082c9.923,3.206,21.688.353,29.638-7.252,13.543-12.953,10.194-28.562-1.358-37.573M-230.986-4.22c-2.669-.335-4.552-1.711-6.527-3.26a.981.981,0,0,0-1.438.225c-2.215,3.23-4.253,5.424-9.012,5.926-5.966.63,4.1-10.984,3.93-11.112l-7.139-5.38c-2.377-1.791-2.17-3.05.1-4.25,4.138-2.192,7.454.053,10.533,2.456a.945.945,0,0,0,1.411-.246A12.32,12.32,0,0,1-235-24.32c2.612-1.446,8.653-2.865,6.064,2.021a70.832,70.832,0,0,1-4.569,6.895,1.075,1.075,0,0,0,.279,1.484c1.413,1.037,4.174,3.155,5.619,4.276.467.361.854.663.873.669a.064.064,0,0,1,.027.014c3.387,3.187-1.1,5.14-4.278,4.74" transform="translate(268.355 -8.336) rotate(-13)"/>
</svg>
